<svg width="30" height="31" viewBox="0 0 30 31" fill="none" xmlns="http://www.w3.org/2000/svg">
<path d="M26.6667 0.238281H3.33333C1.5 0.238281 0 1.73828 0 3.57161V26.9049C0 28.7399 1.5 30.2383 3.33333 30.2383H15V18.5716H11.6667V14.4466H15V11.0299C15 7.42328 17.02 4.88995 21.2767 4.88995L24.2817 4.89328V9.23495H22.2867C20.63 9.23495 20 10.4783 20 11.6316V14.4483H24.28L23.3333 18.5716H20V30.2383H26.6667C28.5 30.2383 30 28.7399 30 26.9049V3.57161C30 1.73828 28.5 0.238281 26.6667 0.238281Z" fill="#9A9A9A"/>
</svg>
