<svg width="30" height="31" viewBox="0 0 30 31" fill="none" xmlns="http://www.w3.org/2000/svg">
<path fill-rule="evenodd" clip-rule="evenodd" d="M3.7099e-07 2.74465C3.7099e-07 2.07992 0.264063 1.44242 0.734097 0.972381C1.20413 0.502347 1.84163 0.238285 2.50636 0.238285H27.4909C27.8203 0.237747 28.1466 0.302189 28.4511 0.427921C28.7556 0.553653 29.0323 0.738207 29.2653 0.971016C29.4984 1.20382 29.6833 1.48032 29.8093 1.78466C29.9354 2.08901 30.0002 2.41523 30 2.74465V27.7292C30.0004 28.0587 29.9357 28.385 29.8099 28.6895C29.684 28.994 29.4993 29.2707 29.2664 29.5037C29.0335 29.7367 28.7569 29.9216 28.4525 30.0476C28.148 30.1737 27.8218 30.2385 27.4923 30.2383H2.50636C2.17711 30.2383 1.85108 30.1734 1.5469 30.0474C1.24273 29.9213 0.96637 29.7366 0.733615 29.5037C0.50086 29.2708 0.316271 28.9944 0.190394 28.6901C0.0645181 28.3859 -0.000178767 28.0598 3.7099e-07 27.7306V2.74465ZM11.8745 11.6765H15.9368V13.7165C16.5232 12.5437 18.0232 11.4883 20.2773 11.4883C24.5986 11.4883 25.6227 13.8242 25.6227 18.1101V26.0492H21.2495V19.0865C21.2495 16.6456 20.6632 15.2683 19.1741 15.2683C17.1082 15.2683 16.2491 16.7533 16.2491 19.0865V26.0492H11.8745V11.6765ZM4.37455 25.8624H8.74909V11.4883H4.37455V25.861V25.8624ZM9.375 6.8001C9.38325 7.17466 9.3166 7.54708 9.17896 7.89553C9.04133 8.24398 8.83548 8.56142 8.5735 8.82924C8.31152 9.09705 7.99868 9.30984 7.65335 9.45511C7.30802 9.60038 6.93714 9.67522 6.5625 9.67522C6.18786 9.67522 5.81698 9.60038 5.47165 9.45511C5.12632 9.30984 4.81348 9.09705 4.5515 8.82924C4.28952 8.56142 4.08367 8.24398 3.94604 7.89553C3.8084 7.54708 3.74175 7.17466 3.75 6.8001C3.76619 6.0649 4.06962 5.36527 4.5953 4.85104C5.12098 4.3368 5.82712 4.04885 6.5625 4.04885C7.29788 4.04885 8.00402 4.3368 8.5297 4.85104C9.05538 5.36527 9.35881 6.0649 9.375 6.8001Z" fill="#9A9A9A"/>
</svg>
