<svg width="187" height="42" viewBox="0 0 187 42" fill="none" xmlns="http://www.w3.org/2000/svg">
<g clip-path="url(#clip0)">
<path fill-rule="evenodd" clip-rule="evenodd" d="M166.116 42C175.843 42 184.055 35.6354 186.66 26.9195H182.614C180.144 33.4251 173.72 38.0625 166.185 38.0625C156.515 38.0625 148.675 30.4234 148.675 21C148.675 11.5766 156.515 3.9375 166.185 3.9375C173.72 3.9375 180.144 8.57496 182.614 15.0805H186.66C184.055 6.36471 175.843 0 166.116 0C154.294 0 144.71 9.402 144.71 21C144.71 32.598 154.294 42 166.116 42Z" fill="#373737"/>
<path d="M187 19.6875H157.926V23.2148H187V19.6875Z" fill="#06BF19"/>
<path d="M15.0147 21.6399V29.6166C14.2271 29.9942 13.2671 30.2931 12.1349 30.5134C11.019 30.7336 9.87856 30.8438 8.71347 30.8438C6.92485 30.8438 5.37414 30.5055 4.06137 29.829C2.7486 29.1367 1.73941 28.1534 1.0338 26.879C0.344602 25.5889 0 24.0628 0 22.3007C0 20.5543 0.344602 19.0439 1.0338 17.7696C1.73941 16.4795 2.73219 15.4962 4.01214 14.8196C5.30849 14.1274 6.82639 13.7812 8.56579 13.7812C9.7801 13.7812 10.9206 13.9543 11.9872 14.3004C13.0538 14.6308 13.9399 15.1107 14.6455 15.74L13.5871 17.9348C12.783 17.3369 11.9872 16.9121 11.1995 16.6604C10.4283 16.3929 9.57499 16.2592 8.63963 16.2592C6.85101 16.2592 5.4972 16.7705 4.57826 17.7932C3.67574 18.8001 3.22448 20.3026 3.22448 22.3007C3.22448 26.3913 5.09515 28.4366 8.83654 28.4366C9.9524 28.4366 11.0683 28.2871 12.1841 27.9882V23.8111H8.44272V21.6399H15.0147Z" fill="#06BF19"/>
<path d="M33.1407 30.6314H29.6948L26.7165 25.3214C26.4375 24.818 26.0929 24.464 25.6827 24.2595C25.2724 24.0549 24.7555 23.9527 24.132 23.9527H21.7198V30.6314H18.5938V13.9937H26.2734C28.2426 13.9937 29.7358 14.4184 30.7532 15.268C31.787 16.1019 32.3039 17.3133 32.3039 18.9024C32.3039 20.1767 31.9265 21.2309 31.1717 22.0647C30.4332 22.8828 29.383 23.4178 28.021 23.6695C28.94 23.9055 29.6784 24.5269 30.2363 25.5338L33.1407 30.6314ZM25.8304 21.6163C27.0282 21.6163 27.9062 21.4039 28.4641 20.9791C29.022 20.5386 29.301 19.8699 29.301 18.9732C29.301 18.0607 29.022 17.3999 28.4641 16.9908C27.9062 16.566 27.0282 16.3536 25.8304 16.3536H21.6951V21.6163H25.8304Z" fill="#06BF19"/>
<path d="M35.7085 30.6314V13.9937H38.8835V30.6314H35.7085Z" fill="#06BF19"/>
<path d="M54.2984 13.9937H57.2766V30.6314H54.8892L45.5848 19.0204V30.6314H42.6311V13.9937H44.994L54.2984 25.5811V13.9937Z" fill="#06BF19"/>
<path d="M72.6868 13.9937H75.6652V30.6314H73.2775L63.9735 19.0204V30.6314H61.0198V13.9937H63.3827L72.6868 25.5811V13.9937Z" fill="#06BF19"/>
<path d="M83.4946 30.6314V16.4952H77.833V13.9937H92.3308V16.4952H86.6696V30.6314H83.4946Z" fill="#06BF19"/>
<path d="M94.5042 30.6314V13.9937H106.122V16.4008H97.6055V20.9791H105.63V23.3627H97.6055V28.2242H106.122V30.6314H94.5042Z" fill="#06BF19"/>
<path d="M116.827 30.8438C115.12 30.8438 113.627 30.4976 112.347 29.8054C111.084 29.0974 110.107 28.0983 109.418 26.8082C108.745 25.5181 108.409 24.0156 108.409 22.3007C108.409 20.5858 108.745 19.0912 109.418 17.8168C110.107 16.5267 111.084 15.5355 112.347 14.8432C113.627 14.1352 115.12 13.7812 116.827 13.7812C117.992 13.7812 119.091 13.9543 120.125 14.3004C121.159 14.6466 122.029 15.1343 122.734 15.7636L121.676 17.982C120.888 17.3841 120.109 16.9515 119.338 16.684C118.566 16.4008 117.746 16.2592 116.876 16.2592C115.202 16.2592 113.906 16.7784 112.987 17.8168C112.085 18.8551 111.633 20.3498 111.633 22.3007C111.633 24.2673 112.085 25.7699 112.987 26.8082C113.906 27.8466 115.202 28.3658 116.876 28.3658C117.746 28.3658 118.566 28.2321 119.338 27.9646C120.109 27.6814 120.888 27.2409 121.676 26.643L122.734 28.8614C122.029 29.4907 121.159 29.9784 120.125 30.3246C119.091 30.6707 117.992 30.8438 116.827 30.8438Z" fill="#06BF19"/>
<path d="M137.644 13.9937H140.746V30.6314H137.644V23.4099H128.758V30.6314H125.632V13.9937H128.758V20.9555H137.644V13.9937Z" fill="#06BF19"/>
</g>
<defs>
<clipPath id="clip0">
<rect width="187" height="42" fill="white"/>
</clipPath>
</defs>
</svg>
