<svg width="30" height="31" viewBox="0 0 30 31" fill="none" xmlns="http://www.w3.org/2000/svg">
<path d="M26.7857 0.238281H3.21429C1.43973 0.238281 0 1.67801 0 3.45257V27.024C0 28.7985 1.43973 30.2383 3.21429 30.2383H26.7857C28.5603 30.2383 30 28.7985 30 27.024V3.45257C30 1.67801 28.5603 0.238281 26.7857 0.238281ZM23.5112 10.8722C23.5246 11.0597 23.5246 11.2539 23.5246 11.4414C23.5246 17.2472 19.1049 23.9369 11.029 23.9369C8.53795 23.9369 6.22768 23.2137 4.28571 21.9682C4.64062 22.0084 4.98214 22.0218 5.34375 22.0218C7.39955 22.0218 9.28795 21.3253 10.7946 20.1468C8.86607 20.1066 7.24554 18.841 6.68973 17.0999C7.36607 17.2003 7.97545 17.2003 8.67188 17.0195C6.66295 16.611 5.15625 14.8432 5.15625 12.707V12.6535C5.73884 12.9816 6.42188 13.1825 7.13839 13.2093C6.536 12.8086 6.04218 12.265 5.70098 11.627C5.35979 10.989 5.18185 10.2765 5.18304 9.55301C5.18304 8.73605 5.39732 7.98605 5.77902 7.3365C7.94197 10.0017 11.1897 11.7427 14.8326 11.9302C14.2098 8.95034 16.4397 6.53292 19.1183 6.53292C20.3839 6.53292 21.5223 7.06194 22.3259 7.91909C23.317 7.73159 24.2679 7.36328 25.1116 6.86105C24.7835 7.87891 24.0938 8.73605 23.183 9.27846C24.067 9.18471 24.9241 8.93694 25.7143 8.59542C25.1183 9.47266 24.3683 10.2494 23.5112 10.8722Z" fill="#9A9A9A"/>
</svg>
