<svg width="45" height="31" viewBox="0 0 45 31" fill="none" xmlns="http://www.w3.org/2000/svg">
<path d="M44.0363 4.94528C43.7817 4.03691 43.2857 3.2145 42.601 2.56551C41.8969 1.89656 41.0341 1.41804 40.0938 1.17512C36.5747 0.247573 22.476 0.247573 22.476 0.247573C16.5984 0.180701 10.7222 0.474822 4.88063 1.12828C3.94032 1.38914 3.07905 1.87835 2.37343 2.55239C1.68011 3.21948 1.17793 4.04209 0.915589 4.94341C0.285404 8.33832 -0.0207823 11.7854 0.0011565 15.2383C-0.0213295 18.688 0.284106 22.134 0.915589 25.5331C1.1723 26.4307 1.67262 27.2496 2.36781 27.911C3.06301 28.5725 3.92872 29.0503 4.88063 29.3033C8.44654 30.229 22.476 30.229 22.476 30.229C28.361 30.2959 34.2447 30.0018 40.0938 29.3483C41.0341 29.1053 41.8969 28.6268 42.601 27.9579C43.2943 27.2964 43.7871 26.4738 44.0345 25.5781C44.6811 22.1845 44.9955 18.736 44.9732 15.2814C45.0219 11.8122 44.7079 8.34735 44.0363 4.94341V4.94528ZM17.9937 21.6543V8.82413L29.724 15.2401L17.9937 21.6543Z" fill="#9A9A9A"/>
</svg>
